<svg width="134" height="97" viewBox="0 0 134 97" fill="none" xmlns="http://www.w3.org/2000/svg">
<g filter="url(#filter0_d)">
<path d="M21.712 59.32C19.2373 59.32 16.4427 59.1067 13.328 58.68C11.6213 58.4667 10.448 58.0187 9.808 57.336C9.168 56.6533 8.89067 55.544 8.976 54.008C9.27467 49.784 9.97867 44.5787 11.088 38.392C12.1973 32.1627 13.5413 26.168 15.12 20.408C15.4187 19.3413 16.016 18.5947 16.912 18.168C17.808 17.7413 18.9813 17.528 20.432 17.528C23.0347 17.528 24.336 18.2533 24.336 19.704C24.336 20.3013 24.208 20.984 23.952 21.752C22.8427 25.1653 21.7333 29.752 20.624 35.512C19.5147 41.2293 18.7253 46.6907 18.256 51.896C19.536 52.024 20.9867 52.088 22.608 52.088C30.0747 52.088 35.6427 49.8267 39.312 45.304C43.024 40.7813 44.88 34.744 44.88 27.192C44.88 22.1147 43.4293 18.1893 40.528 15.416C37.6267 12.6427 33.5307 11.256 28.24 11.256C24.8267 11.256 21.4347 11.7893 18.064 12.856C14.736 13.9227 11.728 15.3307 9.04 17.08C8.48533 17.464 7.888 17.656 7.248 17.656C6.52267 17.656 5.94667 17.3573 5.52 16.76C5.09333 16.12 4.88 15.352 4.88 14.456C4.88 13.432 5.05067 12.6 5.392 11.96C5.73333 11.2773 6.30933 10.6587 7.12 10.104C10.064 8.09866 13.52 6.584 17.488 5.56C21.456 4.49333 25.2747 3.96 28.944 3.96C34.1493 3.96 38.6507 4.87733 42.448 6.712C46.2453 8.504 49.168 11.1493 51.216 14.648C53.264 18.1467 54.288 22.3707 54.288 27.32C54.288 33.7627 53.008 39.3947 50.448 44.216C47.888 48.9947 44.1547 52.7067 39.248 55.352C34.3413 57.9973 28.496 59.32 21.712 59.32ZM66.091 24.952C64.299 24.952 62.955 24.5467 62.059 23.736C61.163 22.8827 60.715 21.7093 60.715 20.216C60.715 18.7227 61.291 17.4853 62.443 16.504C63.6377 15.48 65.1097 14.968 66.859 14.968C68.4377 14.968 69.7177 15.352 70.699 16.12C71.6803 16.888 72.171 17.976 72.171 19.384C72.171 21.0907 71.6163 22.456 70.507 23.48C69.3977 24.4613 67.9257 24.952 66.091 24.952ZM65.579 59.32C62.8057 59.32 60.779 58.3387 59.499 56.376C58.2617 54.4133 57.643 51.8107 57.643 48.568C57.643 46.648 57.8777 44.1947 58.347 41.208C58.859 38.1787 59.499 35.3627 60.267 32.76C60.651 31.3947 61.163 30.456 61.803 29.944C62.443 29.432 63.467 29.176 64.875 29.176C67.051 29.176 68.139 29.9013 68.139 31.352C68.139 32.4187 67.7337 34.8933 66.923 38.776C65.899 43.4693 65.387 46.648 65.387 48.312C65.387 49.592 65.5577 50.5733 65.899 51.256C66.2403 51.9387 66.8163 52.28 67.627 52.28C68.395 52.28 69.355 51.7467 70.507 50.68C71.659 49.6133 73.195 47.928 75.115 45.624C75.627 45.0267 76.203 44.728 76.843 44.728C77.3977 44.728 77.8243 44.984 78.123 45.496C78.4643 46.008 78.635 46.712 78.635 47.608C78.635 49.3147 78.2297 50.6373 77.419 51.576C73.195 56.7387 69.2483 59.32 65.579 59.32ZM77.761 59.32C76.1397 59.32 74.9877 58.4667 74.305 56.76C73.665 55.0533 73.345 52.3227 73.345 48.568C73.345 43.0213 74.1343 37.752 75.713 32.76C76.097 31.5227 76.7157 30.6267 77.569 30.072C78.465 29.4747 79.7023 29.176 81.281 29.176C82.1343 29.176 82.7317 29.2827 83.073 29.496C83.4143 29.7093 83.585 30.1147 83.585 30.712C83.585 31.3947 83.265 32.9307 82.625 35.32C82.1983 37.0267 81.857 38.52 81.601 39.8C81.345 41.08 81.1317 42.6587 80.961 44.536C82.369 40.8667 83.9477 37.88 85.697 35.576C87.4463 33.272 89.153 31.6293 90.817 30.648C92.5237 29.6667 94.081 29.176 95.489 29.176C98.2623 29.176 99.649 30.5627 99.649 33.336C99.649 35 99.1797 38.008 98.241 42.36C97.4303 46.072 97.025 48.5253 97.025 49.72C97.025 51.4267 97.6437 52.28 98.881 52.28C99.7343 52.28 100.737 51.768 101.889 50.744C103.084 49.6773 104.662 47.9707 106.625 45.624C107.137 45.0267 107.713 44.728 108.353 44.728C108.908 44.728 109.334 44.984 109.633 45.496C109.974 46.008 110.145 46.712 110.145 47.608C110.145 49.3147 109.74 50.6373 108.929 51.576C107.094 53.8373 105.11 55.6933 102.977 57.144C100.886 58.5947 98.497 59.32 95.809 59.32C93.633 59.32 91.9903 58.7013 90.881 57.464C89.7717 56.184 89.217 54.3493 89.217 51.96C89.217 50.7653 89.5157 48.632 90.113 45.56C90.6677 42.872 90.945 41.016 90.945 39.992C90.945 39.3093 90.7103 38.968 90.241 38.968C89.6863 38.968 88.897 39.6933 87.873 41.144C86.8917 42.552 85.8677 44.4293 84.801 46.776C83.777 49.1227 82.945 51.5973 82.305 54.2C81.8357 56.2053 81.281 57.5707 80.641 58.296C80.0437 58.9787 79.0837 59.32 77.761 59.32ZM126.423 31.288C127.49 31.288 128.236 31.4587 128.663 31.8C129.132 32.0987 129.367 32.7173 129.367 33.656C129.367 34.168 129.346 34.5733 129.303 34.872C129.132 36.1947 128.599 39.608 127.703 45.112C127.063 48.824 126.658 51.2773 126.487 52.472C124.866 63.48 122.668 72.1627 119.895 78.52C117.164 84.92 113.495 88.12 108.887 88.12C106.711 88.12 104.94 87.4373 103.575 86.072C102.21 84.7493 101.527 83 101.527 80.824C101.527 77.7947 102.722 74.5307 105.111 71.032C107.5 67.576 111.98 63.3093 118.551 58.232L118.935 55.736C118.21 56.888 117.25 57.784 116.055 58.424C114.903 59.0213 113.751 59.32 112.599 59.32C109.954 59.32 107.842 58.36 106.263 56.44C104.684 54.52 103.895 52.0027 103.895 48.888C103.895 45.4747 104.684 42.2533 106.263 39.224C107.842 36.152 109.932 33.6987 112.535 31.864C115.18 29.9867 117.975 29.048 120.919 29.048C121.858 29.048 122.476 29.24 122.775 29.624C123.116 29.9653 123.394 30.6053 123.607 31.544C124.418 31.3733 125.356 31.288 126.423 31.288ZM114.903 52.856C115.884 52.856 116.823 52.2587 117.719 51.064C118.615 49.8693 119.255 48.1627 119.639 45.944L121.687 35C119.938 35.0427 118.316 35.7253 116.823 37.048C115.33 38.328 114.135 40.0347 113.239 42.168C112.343 44.3013 111.895 46.5627 111.895 48.952C111.895 50.2747 112.151 51.256 112.663 51.896C113.218 52.536 113.964 52.856 114.903 52.856ZM109.591 81.912C110.658 81.912 111.852 80.632 113.175 78.072C114.54 75.512 115.842 71.4373 117.079 65.848C113.794 68.664 111.426 71.2027 109.975 73.464C108.524 75.7253 107.799 77.7093 107.799 79.416C107.799 80.1413 107.927 80.7387 108.183 81.208C108.482 81.6773 108.951 81.912 109.591 81.912Z" fill="black"/>
</g>
<defs>
<filter id="filter0_d" x="-2" y="0" width="137" height="96.12" filterUnits="userSpaceOnUse" color-interpolation-filters="sRGB">
<feFlood flood-opacity="0" result="BackgroundImageFix"/>
<feColorMatrix in="SourceAlpha" type="matrix" values="0 0 0 0 0 0 0 0 0 0 0 0 0 0 0 0 0 0 127 0" result="hardAlpha"/>
<feOffset dy="4"/>
<feGaussianBlur stdDeviation="2"/>
<feComposite in2="hardAlpha" operator="out"/>
<feColorMatrix type="matrix" values="0 0 0 0 0 0 0 0 0 0 0 0 0 0 0 0 0 0 0.12 0"/>
<feBlend mode="normal" in2="BackgroundImageFix" result="effect1_dropShadow"/>
<feBlend mode="normal" in="SourceGraphic" in2="effect1_dropShadow" result="shape"/>
</filter>
</defs>
</svg>
