<svg width="485" height="391" viewBox="0 0 485 391" fill="none" xmlns="http://www.w3.org/2000/svg">
<path d="M1 222.02C1 222.02 14.3587 228.208 23.5348 228.854C31.7546 229.433 43.4777 229.242 52.6205 227.303M52.6205 227.303C62.7943 225.145 69.7731 220.823 65.1751 212.989C57.5819 200.052 40.4358 204.446 36.0269 214.697C32.8713 222.035 41.7622 225.583 52.6205 227.303ZM52.6205 227.303C59.2912 228.359 66.7045 228.725 72.5234 228.854C86.4851 229.166 97.0177 223.973 97.0177 223.973" stroke="#EF4444" stroke-width="2" stroke-linecap="round"/>
<path d="M103.4 264.856C103.4 264.856 87.1072 267.459 78.1819 272.606C61.29 282.346 32.0407 305.085 49.4964 313.473C64.6787 320.769 77.8353 305.934 75.4839 293.621C72.7671 279.394 47.1106 294.034 32.7001 303.295C19.5421 311.751 13.0282 323.188 13.0282 323.188" stroke="#EF4444" stroke-width="6" stroke-linecap="round"/>
<path d="M78.612 361.651C78.3792 362.152 78.5965 362.747 79.0973 362.979L87.2585 366.773C87.7593 367.006 88.354 366.789 88.5869 366.288C88.8197 365.787 88.6024 365.193 88.1016 364.96L80.8472 361.587L84.2196 354.333C84.4524 353.832 84.2351 353.237 83.7343 353.005C83.2335 352.772 82.6388 352.989 82.406 353.49L78.612 361.651ZM109.806 321.825L109.552 322.792L109.806 321.825ZM95.6718 353.458L96.3273 354.213L95.6718 353.458ZM122.593 326.536L123.284 327.259L122.593 326.536ZM94.7295 338.786L95.658 338.414L94.7295 338.786ZM79.5188 362.073C79.8619 363.012 79.862 363.012 79.862 363.012C79.862 363.012 79.8621 363.012 79.8621 363.012C79.8622 363.012 79.8622 363.012 79.8623 363.012C79.8625 363.012 79.8627 363.012 79.863 363.012C79.8636 363.011 79.8643 363.011 79.8653 363.011C79.8672 363.01 79.8699 363.009 79.8734 363.008C79.8804 363.005 79.8905 363.001 79.9037 362.997C79.9302 362.987 79.9689 362.972 80.0192 362.954C80.1199 362.916 80.267 362.86 80.4552 362.788C80.8315 362.643 81.3724 362.431 82.0348 362.16L81.277 360.309C80.6291 360.574 80.1015 360.781 79.7369 360.921C79.5546 360.991 79.4131 361.045 79.3177 361.081C79.2701 361.098 79.234 361.112 79.2101 361.121C79.1981 361.125 79.1892 361.128 79.1835 361.13C79.1806 361.132 79.1785 361.132 79.1772 361.133C79.1765 361.133 79.1761 361.133 79.1758 361.133C79.1757 361.133 79.1756 361.133 79.1756 361.133C79.1756 361.133 79.1756 361.133 79.1756 361.133C79.1756 361.133 79.1756 361.133 79.1756 361.133C79.1757 361.133 79.1757 361.133 79.5188 362.073ZM86.2895 360.29C87.6168 359.665 89.0413 358.952 90.4451 358.172L89.4744 356.424C88.1179 357.177 86.7344 357.87 85.4374 358.481L86.2895 360.29ZM94.4412 355.685C95.1103 355.21 95.7456 354.718 96.3273 354.213L95.0163 352.703C94.4921 353.158 93.9093 353.61 93.2824 354.055L94.4412 355.685ZM96.3273 354.213C96.8249 353.781 97.3377 353.325 97.8616 352.848L96.5148 351.369C96.0022 351.836 95.5013 352.282 95.0163 352.703L96.3273 354.213ZM100.847 350.011C101.799 349.07 102.762 348.08 103.717 347.058L102.255 345.693C101.319 346.695 100.374 347.666 99.4406 348.589L100.847 350.011ZM106.463 343.99C107.365 342.935 108.239 341.862 109.066 340.785L107.479 339.567C106.676 340.614 105.825 341.659 104.943 342.689L106.463 343.99ZM111.475 337.413C112.277 336.194 112.994 334.983 113.593 333.801L111.809 332.897C111.251 333.998 110.574 335.144 109.805 336.313L111.475 337.413ZM115.16 329.81C115.572 328.215 115.67 326.657 115.259 325.256L113.34 325.819C113.615 326.757 113.582 327.923 113.224 329.31L115.16 329.81ZM112.182 321.658C111.557 321.331 110.85 321.065 110.059 320.858L109.552 322.792C110.22 322.967 110.783 323.183 111.254 323.43L112.182 321.658ZM110.059 320.858C109.223 320.639 108.405 320.495 107.607 320.42L107.422 322.412C108.107 322.476 108.818 322.6 109.552 322.792L110.059 320.858ZM102.622 320.901C100.963 321.403 99.4812 322.231 98.2074 323.284L99.4814 324.826C100.564 323.931 101.813 323.236 103.202 322.815L102.622 320.901ZM94.9949 327.088C94.1522 328.529 93.5516 330.107 93.225 331.723L95.1853 332.12C95.4683 330.719 95.9897 329.349 96.7213 328.098L94.9949 327.088ZM93.1191 336.715C93.26 337.549 93.4853 338.368 93.801 339.157L95.658 338.414C95.3976 337.763 95.2095 337.082 95.0912 336.382L93.1191 336.715ZM93.801 339.157C94.1396 340.003 94.5784 340.719 95.1211 341.296L96.5781 339.926C96.2343 339.56 95.9198 339.069 95.658 338.414L93.801 339.157ZM99.8397 342.943C101.242 342.837 102.749 342.375 104.286 341.696L103.477 339.867C102.057 340.494 100.782 340.866 99.6879 340.949L99.8397 342.943ZM108.184 339.595C109.378 338.851 110.589 338.018 111.795 337.129L110.609 335.519C109.436 336.383 108.268 337.186 107.127 337.897L108.184 339.595ZM115.222 334.457C116.35 333.533 117.455 332.587 118.52 331.648L117.196 330.148C116.147 331.074 115.06 332.004 113.955 332.91L115.222 334.457ZM121.718 328.74C122.261 328.232 122.785 327.737 123.284 327.259L121.902 325.813C121.407 326.287 120.89 326.777 120.353 327.278L121.718 328.74ZM123.284 327.259C123.901 326.67 124.487 326.074 125.044 325.476L123.581 324.112C123.049 324.683 122.49 325.252 121.902 325.813L123.284 327.259ZM128.245 321.636C129.329 320.184 130.249 318.777 131.019 317.483L129.3 316.46C128.562 317.7 127.68 319.049 126.642 320.44L128.245 321.636ZM133.343 313.058C133.671 312.338 133.91 311.756 134.069 311.351C134.148 311.148 134.207 310.99 134.247 310.88C134.267 310.826 134.282 310.783 134.292 310.753C134.297 310.739 134.301 310.727 134.304 310.719C134.306 310.714 134.307 310.711 134.308 310.709C134.308 310.707 134.308 310.706 134.309 310.705C134.309 310.705 134.309 310.705 134.309 310.704C134.309 310.704 134.309 310.704 134.309 310.704C134.309 310.704 134.309 310.704 134.309 310.704C134.309 310.704 134.309 310.703 133.362 310.383C132.415 310.063 132.415 310.063 132.415 310.063C132.415 310.063 132.415 310.063 132.415 310.063C132.415 310.063 132.415 310.063 132.415 310.063C132.415 310.062 132.415 310.062 132.415 310.062C132.415 310.062 132.415 310.063 132.415 310.063C132.414 310.064 132.414 310.065 132.413 310.068C132.411 310.073 132.408 310.081 132.404 310.092C132.397 310.115 132.384 310.15 132.367 310.197C132.332 310.292 132.279 310.435 132.206 310.622C132.06 310.996 131.835 311.545 131.523 312.23L133.343 313.058Z" fill="#EF4444"/>
<path d="M305.755 197.193L306.609 194.398L306.975 194.509L306.986 194.544L307.037 194.528L307.087 194.544L307.098 194.509L307.464 194.398L308.318 197.193L307.84 197.339L308.694 200.134L309.172 199.988L310.027 202.783L309.548 202.929L310.403 205.724L310.881 205.578L311.735 208.373L311.257 208.519L312.111 211.314L312.59 211.168L313.444 213.963L312.966 214.109L313.82 216.904L314.298 216.758L315.153 219.553L314.674 219.699L315.529 222.494L316.007 222.348L316.861 225.143L316.383 225.289L317.237 228.085L317.716 227.938L318.57 230.733L318.092 230.88L318.519 232.277L318.553 232.388L318.631 232.472L319.628 233.541L319.994 233.2L321.987 235.337L321.622 235.678L323.615 237.816L323.981 237.475L325.974 239.612L325.609 239.953L327.602 242.09L327.968 241.749L329.961 243.887L329.595 244.228L331.589 246.365L331.954 246.024L333.948 248.162L333.582 248.503L335.576 250.64L335.941 250.299L337.935 252.436L337.569 252.777L339.563 254.915L339.928 254.574L341.922 256.711L341.556 257.052L343.549 259.19L343.915 258.849L345.909 260.986L345.629 261.247L345.594 261.239L345.582 261.291L345.543 261.327L345.567 261.353L345.481 261.726L342.634 261.068L342.746 260.581L339.898 259.923L339.786 260.411L336.938 259.753L337.051 259.266L334.203 258.608L334.09 259.095L331.243 258.438L331.355 257.95L328.507 257.293L328.395 257.78L325.547 257.122L325.66 256.635L322.812 255.977L322.699 256.465L319.851 255.807L319.964 255.32L317.116 254.662L317.004 255.149L314.156 254.492L314.268 254.004L311.421 253.347L311.308 253.834L308.46 253.176L308.573 252.689L307.149 252.36L307.036 252.334L306.924 252.36L305.5 252.689L305.613 253.176L302.765 253.834L302.652 253.347L299.805 254.004L299.917 254.492L297.069 255.149L296.957 254.662L294.109 255.32L294.222 255.807L291.374 256.465L291.261 255.977L288.413 256.635L288.526 257.122L285.678 257.78L285.566 257.293L282.718 257.95L282.83 258.438L279.983 259.095L279.87 258.608L277.022 259.266L277.135 259.753L274.287 260.411L274.175 259.923L271.327 260.581L271.439 261.068L268.592 261.726L268.506 261.353L268.53 261.327L268.491 261.291L268.479 261.239L268.444 261.247L268.164 260.986L270.158 258.849L270.524 259.19L272.517 257.052L272.151 256.711L274.145 254.574L274.51 254.915L276.504 252.777L276.138 252.436L278.132 250.299L278.497 250.64L280.491 248.503L280.125 248.162L282.119 246.024L282.484 246.365L284.478 244.228L284.112 243.887L286.105 241.749L286.471 242.09L288.464 239.953L288.099 239.612L290.092 237.475L290.458 237.816L292.451 235.678L292.086 235.337L294.079 233.2L294.445 233.541L295.442 232.472L295.52 232.388L295.554 232.277L295.981 230.88L295.503 230.733L296.357 227.938L296.836 228.085L297.69 225.289L297.212 225.143L298.066 222.348L298.544 222.494L299.399 219.699L298.92 219.553L299.775 216.758L300.253 216.904L301.107 214.109L300.629 213.963L301.483 211.168L301.962 211.314L302.816 208.519L302.338 208.373L303.192 205.578L303.67 205.724L304.524 202.929L304.046 202.783L304.901 199.988L305.379 200.134L306.233 197.339L305.755 197.193Z" stroke="#FACC15" stroke-dasharray="3 3"/>
<path d="M353.679 381.6L337.929 366.911L317.334 360.616L337.929 354.321L353.679 339.633L348.833 360.616L353.679 381.6Z" fill="#FACC15"/>
<path fill-rule="evenodd" clip-rule="evenodd" d="M351.922 360.616L358.828 330.715L336.385 351.646L307.036 360.616L336.385 369.587L358.828 390.518L351.922 360.616ZM349.62 360.616L354.991 383.873L337.536 367.593L314.709 360.616L337.536 353.639L354.991 337.36L349.62 360.616Z" fill="#FACC15"/>
<path d="M423.992 262.226L441.65 278.694L441.988 279.009L442.429 279.144L465.52 286.202L442.429 293.26L441.988 293.395L441.65 293.71L423.992 310.178L429.425 286.652L429.529 286.202L429.425 285.752L423.992 262.226Z" stroke="#FACC15" stroke-width="4"/>
<circle cx="35.5559" cy="85.9848" r="33.5559" stroke="#22C55E" stroke-width="2" stroke-dasharray="4 4"/>
<circle cx="83.4404" cy="16.8731" r="7.87311" stroke="#22C55E" stroke-width="4" stroke-dasharray="8 8"/>
<circle cx="115.528" cy="85.9849" r="6.90483" transform="rotate(-45 115.528 85.9849)" stroke="#22C55E" stroke-dasharray="8 8"/>
<path d="M327.015 66.412C328.2 66.174 328.966 65.0172 328.727 63.8275L328.727 63.8263L328.724 63.8149C328.722 63.7996 328.717 63.7725 328.71 63.7342C328.696 63.6576 328.676 63.5366 328.653 63.3767C328.607 63.0562 328.55 62.5825 328.509 61.9976C328.427 60.8195 328.417 59.2342 328.686 57.5625C329.225 54.2218 330.8 50.843 334.889 49.2682C339.146 47.6289 343.417 48.9057 348.589 50.5504L348.864 50.6381C351.569 51.4991 354.542 52.4454 357.655 52.7179C360.099 52.9318 362.628 52.7306 365.182 51.747C367.725 50.7677 369.73 49.2295 371.395 47.442C373.532 45.1468 375.108 42.4408 376.542 39.9795L376.687 39.7295C379.42 35.0405 381.731 31.229 385.988 29.5898C390.245 27.9505 394.515 29.2273 399.687 30.872L399.963 30.9597C402.703 31.8318 405.718 32.7915 408.875 33.0497C411.281 33.2466 413.769 33.0359 416.281 32.0686C418.782 31.1055 420.762 29.6018 422.41 27.8521C424.59 25.5382 426.188 22.7941 427.64 20.301L427.786 20.051C430.519 15.3621 432.83 11.5506 437.087 9.91134C441.208 8.32433 444.859 9.73255 447.713 11.8156C449.133 12.8522 450.284 14.0109 451.083 14.9189C451.479 15.37 451.783 15.7519 451.983 16.0151C452.083 16.1465 452.157 16.2477 452.204 16.3125C452.227 16.3449 452.243 16.3681 452.252 16.3814L452.259 16.3905L452.26 16.3925L452.261 16.3933L452.261 16.394C452.943 17.3968 454.304 17.6591 455.304 16.9794C456.304 16.299 456.563 14.932 455.882 13.9262L454.07 15.1584C455.882 13.9262 455.881 13.9255 455.88 13.9247L455.879 13.9229L455.876 13.9186L455.868 13.9068L455.844 13.8712C455.824 13.8423 455.796 13.803 455.761 13.7542C455.691 13.6565 455.592 13.5206 455.464 13.3528C455.209 13.0178 454.839 12.5539 454.365 12.0145C453.421 10.9414 452.036 9.5404 450.285 8.26221C446.795 5.71559 441.56 3.47379 435.506 5.80533C429.698 8.04191 426.697 13.1946 424.146 17.5729L424.001 17.8229C421.268 22.5118 418.956 26.3233 414.7 27.9626C410.443 29.6018 406.172 28.3251 401 26.6804L400.725 26.5926C395.897 25.0558 390.214 23.2472 384.407 25.4837C378.599 27.7203 375.598 32.873 373.048 37.2513L372.902 37.5013C370.169 42.1902 367.858 46.0017 363.601 47.641C359.344 49.2802 355.074 48.0035 349.902 46.3588L349.626 46.271C344.798 44.7342 339.116 42.9256 333.308 45.1622C327.222 47.5058 325.037 52.6475 324.359 56.8476C324.021 58.9462 324.039 60.8864 324.137 62.2912C324.186 62.9978 324.256 63.5798 324.315 63.9924C324.345 64.1989 324.372 64.3637 324.393 64.4812C324.403 64.54 324.412 64.587 324.418 64.6215L324.426 64.664L324.429 64.6781L324.43 64.6833L324.431 64.6855C324.431 64.6864 324.431 64.6873 326.579 64.256L324.431 64.6873C324.672 65.8781 325.829 66.6502 327.015 66.412Z" fill="#3B82F6"/>
<path d="M335.447 81.2781C335.686 82.4678 334.92 83.6245 333.735 83.8626C332.549 84.1008 331.392 83.3286 331.151 82.1379L333.299 81.7066C331.151 82.1379 331.151 82.137 331.151 82.136L331.15 82.1339L331.149 82.1286L331.147 82.1145L331.138 82.0721C331.132 82.0375 331.123 81.9905 331.113 81.9317C331.092 81.8142 331.065 81.6494 331.036 81.4429C330.976 81.0304 330.906 80.4483 330.857 79.7418C330.759 78.337 330.741 76.3968 331.08 74.2981C331.757 70.0981 333.942 64.9564 340.028 62.6127C345.836 60.3761 351.518 62.1848 356.346 63.7216L356.622 63.8093C361.794 65.454 366.065 66.7308 370.321 65.0915C374.578 63.4523 376.889 59.6408 379.622 54.9518L379.768 54.7018C382.318 50.3235 385.319 45.1709 391.127 42.9343C396.935 40.6977 402.617 42.5063 407.445 44.0432L407.721 44.1309C412.893 45.7756 417.164 47.0524 421.42 45.4131C425.677 43.7739 427.988 39.9623 430.721 35.2734L430.867 35.0234C433.417 30.6451 436.418 25.4925 442.226 23.2559C448.28 20.9243 453.516 23.1661 457.005 25.7127C458.756 26.9909 460.141 28.392 461.085 29.465C461.56 30.0044 461.929 30.4684 462.184 30.8034C462.312 30.9711 462.411 31.1071 462.481 31.2047C462.516 31.2535 462.544 31.2928 462.564 31.3218L462.589 31.3573L462.597 31.3691L462.6 31.3735L462.601 31.3753C462.601 31.376 462.602 31.3768 460.79 32.6089L462.602 31.3768C463.283 32.3825 463.024 33.7495 462.024 34.43C461.025 35.1097 459.663 34.8474 458.981 33.8445L458.981 33.8438L458.98 33.843L458.979 33.841L458.973 33.8319C458.963 33.8186 458.947 33.7954 458.924 33.763C458.877 33.6983 458.804 33.597 458.704 33.4656C458.503 33.2025 458.2 32.8206 457.803 32.3694C457.004 31.4615 455.854 30.3028 454.433 29.2661C451.579 27.1831 447.928 25.7749 443.807 27.3619C439.55 29.0011 437.239 32.8126 434.506 37.5016L434.361 37.7516C432.909 40.2446 431.31 42.9888 429.131 45.3026C427.483 47.0524 425.502 48.5561 423.001 49.5191C420.489 50.4865 418.001 50.6971 415.595 50.5003C412.438 50.242 409.423 49.2824 406.683 48.4102L406.408 48.3225C401.236 46.6778 396.965 45.401 392.708 47.0403C388.452 48.6795 386.14 52.4911 383.408 57.18L383.262 57.43C381.828 59.8913 380.252 62.5974 378.115 64.8925C376.45 66.68 374.445 68.2183 371.903 69.1975C369.349 70.1811 366.819 70.3824 364.375 70.1684C361.262 69.8959 358.29 68.9496 355.585 68.0886L355.309 68.0009C350.137 66.3562 345.866 65.0795 341.61 66.7187C337.52 68.2936 335.945 71.6723 335.407 75.0131C335.137 76.6848 335.147 78.2701 335.229 79.4482C335.27 80.033 335.328 80.5068 335.374 80.8272C335.397 80.9872 335.417 81.1081 335.43 81.1847C335.437 81.223 335.442 81.2502 335.445 81.2655L335.447 81.2768L335.447 81.2781Z" fill="#3B82F6"/>
<path d="M342.167 98.7273L342.167 98.7279C342.407 99.9179 341.641 101.075 340.456 101.313C339.269 101.551 338.113 100.779 337.872 99.5884L340.019 99.1571C337.872 99.5884 337.871 99.5875 337.871 99.5866L337.871 99.5844L337.87 99.5792L337.867 99.5651L337.859 99.5226C337.852 99.4881 337.844 99.441 337.833 99.3823C337.813 99.2647 337.786 99.0999 337.756 98.8934C337.697 98.4809 337.626 97.8989 337.577 97.1923C337.479 95.7875 337.462 93.8473 337.8 91.7486C338.477 87.5486 340.663 82.4069 346.749 80.0632C352.556 77.8267 358.238 79.6353 363.067 81.1721L363.342 81.2599C368.514 82.9045 372.785 84.1813 377.042 82.5421C381.298 80.9028 383.61 77.0913 386.342 72.4024L386.488 72.1523C389.038 67.7741 392.04 62.6214 397.847 60.3848C403.655 58.1482 409.337 59.9569 414.165 61.4937L414.441 61.5814C419.613 63.2261 423.884 64.5029 428.14 62.8636C432.397 61.2244 434.708 57.4129 437.441 52.7239L437.587 52.4739C440.137 48.0956 443.138 42.943 448.946 40.7064C455 38.3749 460.236 40.6167 463.725 43.1633C465.476 44.4415 466.862 45.8425 467.806 46.9156C468.28 47.4549 468.65 47.9189 468.905 48.2539C469.032 48.4216 469.132 48.5576 469.202 48.6552C469.236 48.7041 469.264 48.7434 469.284 48.7723L469.309 48.8079L469.317 48.8197L469.32 48.824L469.321 48.8258C469.322 48.8266 469.322 48.8273 467.511 50.0594L469.322 48.8273C470.003 49.8331 469.745 51.2 468.744 51.8805C467.745 52.5602 466.384 52.2979 465.702 51.295L465.701 51.2944L465.701 51.2936L465.699 51.2916L465.693 51.2825C465.689 51.2765 465.683 51.2684 465.676 51.2584C465.667 51.2463 465.657 51.2313 465.644 51.2136C465.598 51.1488 465.524 51.0476 465.424 50.9162C465.224 50.653 464.92 50.2711 464.523 49.82C463.724 48.912 462.574 47.7533 461.154 46.7167C458.3 44.6336 454.648 43.2254 450.527 44.8124C446.271 46.4517 443.96 50.2632 441.227 54.9521L441.081 55.2021C439.629 57.6952 438.03 60.4393 435.851 62.7532C434.203 64.5029 432.222 66.0066 429.722 66.9697C427.21 67.937 424.721 68.1476 422.315 67.9508C419.159 67.6925 416.144 66.7329 413.404 65.8608L413.128 65.773C407.956 64.1283 403.685 62.8516 399.429 64.4908C395.172 66.1301 392.861 69.9416 390.128 74.6305L389.982 74.8806C388.548 77.3419 386.972 80.0479 384.835 82.343C383.171 84.1306 381.166 85.6688 378.623 86.6481C376.069 87.6317 373.539 87.8329 371.096 87.619C367.983 87.3464 365.01 86.4002 362.305 85.5392L362.029 85.4514C356.857 83.8068 352.586 82.53 348.33 84.1692C344.24 85.7441 342.666 89.1229 342.127 92.4636C341.857 94.1353 341.867 95.7206 341.95 96.8987C341.99 97.4836 342.048 97.9573 342.094 98.2777C342.117 98.4377 342.137 98.5586 342.15 98.6353C342.157 98.6736 342.162 98.7007 342.165 98.716L342.167 98.7273Z" fill="#3B82F6"/>
</svg>
