<svg width="428" height="391" viewBox="0 0 428 391" fill="none" xmlns="http://www.w3.org/2000/svg">
<g filter="url(#filter0_d)">
<path d="M169.712 193.32C167.237 193.32 164.443 193.107 161.328 192.68C159.621 192.467 158.448 192.019 157.808 191.336C157.168 190.653 156.891 189.544 156.976 188.008C157.275 183.784 157.979 178.579 159.088 172.392C160.197 166.163 161.541 160.168 163.12 154.408C163.419 153.341 164.016 152.595 164.912 152.168C165.808 151.741 166.981 151.528 168.432 151.528C171.035 151.528 172.336 152.253 172.336 153.704C172.336 154.301 172.208 154.984 171.952 155.752C170.843 159.165 169.733 163.752 168.624 169.512C167.515 175.229 166.725 180.691 166.256 185.896C167.536 186.024 168.987 186.088 170.608 186.088C178.075 186.088 183.643 183.827 187.312 179.304C191.024 174.781 192.88 168.744 192.88 161.192C192.88 156.115 191.429 152.189 188.528 149.416C185.627 146.643 181.531 145.256 176.24 145.256C172.827 145.256 169.435 145.789 166.064 146.856C162.736 147.923 159.728 149.331 157.04 151.08C156.485 151.464 155.888 151.656 155.248 151.656C154.523 151.656 153.947 151.357 153.52 150.76C153.093 150.12 152.88 149.352 152.88 148.456C152.88 147.432 153.051 146.6 153.392 145.96C153.733 145.277 154.309 144.659 155.12 144.104C158.064 142.099 161.52 140.584 165.488 139.56C169.456 138.493 173.275 137.96 176.944 137.96C182.149 137.96 186.651 138.877 190.448 140.712C194.245 142.504 197.168 145.149 199.216 148.648C201.264 152.147 202.288 156.371 202.288 161.32C202.288 167.763 201.008 173.395 198.448 178.216C195.888 182.995 192.155 186.707 187.248 189.352C182.341 191.997 176.496 193.32 169.712 193.32ZM214.091 158.952C212.299 158.952 210.955 158.547 210.059 157.736C209.163 156.883 208.715 155.709 208.715 154.216C208.715 152.723 209.291 151.485 210.443 150.504C211.638 149.48 213.11 148.968 214.859 148.968C216.438 148.968 217.718 149.352 218.699 150.12C219.68 150.888 220.171 151.976 220.171 153.384C220.171 155.091 219.616 156.456 218.507 157.48C217.398 158.461 215.926 158.952 214.091 158.952ZM213.579 193.32C210.806 193.32 208.779 192.339 207.499 190.376C206.262 188.413 205.643 185.811 205.643 182.568C205.643 180.648 205.878 178.195 206.347 175.208C206.859 172.179 207.499 169.363 208.267 166.76C208.651 165.395 209.163 164.456 209.803 163.944C210.443 163.432 211.467 163.176 212.875 163.176C215.051 163.176 216.139 163.901 216.139 165.352C216.139 166.419 215.734 168.893 214.923 172.776C213.899 177.469 213.387 180.648 213.387 182.312C213.387 183.592 213.558 184.573 213.899 185.256C214.24 185.939 214.816 186.28 215.627 186.28C216.395 186.28 217.355 185.747 218.507 184.68C219.659 183.613 221.195 181.928 223.115 179.624C223.627 179.027 224.203 178.728 224.843 178.728C225.398 178.728 225.824 178.984 226.123 179.496C226.464 180.008 226.635 180.712 226.635 181.608C226.635 183.315 226.23 184.637 225.419 185.576C221.195 190.739 217.248 193.32 213.579 193.32ZM225.761 193.32C224.14 193.32 222.988 192.467 222.305 190.76C221.665 189.053 221.345 186.323 221.345 182.568C221.345 177.021 222.134 171.752 223.713 166.76C224.097 165.523 224.716 164.627 225.569 164.072C226.465 163.475 227.702 163.176 229.281 163.176C230.134 163.176 230.732 163.283 231.073 163.496C231.414 163.709 231.585 164.115 231.585 164.712C231.585 165.395 231.265 166.931 230.625 169.32C230.198 171.027 229.857 172.52 229.601 173.8C229.345 175.08 229.132 176.659 228.961 178.536C230.369 174.867 231.948 171.88 233.697 169.576C235.446 167.272 237.153 165.629 238.817 164.648C240.524 163.667 242.081 163.176 243.489 163.176C246.262 163.176 247.649 164.563 247.649 167.336C247.649 169 247.18 172.008 246.241 176.36C245.43 180.072 245.025 182.525 245.025 183.72C245.025 185.427 245.644 186.28 246.881 186.28C247.734 186.28 248.737 185.768 249.889 184.744C251.084 183.677 252.662 181.971 254.625 179.624C255.137 179.027 255.713 178.728 256.353 178.728C256.908 178.728 257.334 178.984 257.633 179.496C257.974 180.008 258.145 180.712 258.145 181.608C258.145 183.315 257.74 184.637 256.929 185.576C255.094 187.837 253.11 189.693 250.977 191.144C248.886 192.595 246.497 193.32 243.809 193.32C241.633 193.32 239.99 192.701 238.881 191.464C237.772 190.184 237.217 188.349 237.217 185.96C237.217 184.765 237.516 182.632 238.113 179.56C238.668 176.872 238.945 175.016 238.945 173.992C238.945 173.309 238.71 172.968 238.241 172.968C237.686 172.968 236.897 173.693 235.873 175.144C234.892 176.552 233.868 178.429 232.801 180.776C231.777 183.123 230.945 185.597 230.305 188.2C229.836 190.205 229.281 191.571 228.641 192.296C228.044 192.979 227.084 193.32 225.761 193.32ZM274.423 165.288C275.49 165.288 276.236 165.459 276.663 165.8C277.132 166.099 277.367 166.717 277.367 167.656C277.367 168.168 277.346 168.573 277.303 168.872C277.132 170.195 276.599 173.608 275.703 179.112C275.063 182.824 274.658 185.277 274.487 186.472C272.866 197.48 270.668 206.163 267.895 212.52C265.164 218.92 261.495 222.12 256.887 222.12C254.711 222.12 252.94 221.437 251.575 220.072C250.21 218.749 249.527 217 249.527 214.824C249.527 211.795 250.722 208.531 253.111 205.032C255.5 201.576 259.98 197.309 266.551 192.232L266.935 189.736C266.21 190.888 265.25 191.784 264.055 192.424C262.903 193.021 261.751 193.32 260.599 193.32C257.954 193.32 255.842 192.36 254.263 190.44C252.684 188.52 251.895 186.003 251.895 182.888C251.895 179.475 252.684 176.253 254.263 173.224C255.842 170.152 257.932 167.699 260.535 165.864C263.18 163.987 265.975 163.048 268.919 163.048C269.858 163.048 270.476 163.24 270.775 163.624C271.116 163.965 271.394 164.605 271.607 165.544C272.418 165.373 273.356 165.288 274.423 165.288ZM262.903 186.856C263.884 186.856 264.823 186.259 265.719 185.064C266.615 183.869 267.255 182.163 267.639 179.944L269.687 169C267.938 169.043 266.316 169.725 264.823 171.048C263.33 172.328 262.135 174.035 261.239 176.168C260.343 178.301 259.895 180.563 259.895 182.952C259.895 184.275 260.151 185.256 260.663 185.896C261.218 186.536 261.964 186.856 262.903 186.856ZM257.591 215.912C258.658 215.912 259.852 214.632 261.175 212.072C262.54 209.512 263.842 205.437 265.079 199.848C261.794 202.664 259.426 205.203 257.975 207.464C256.524 209.725 255.799 211.709 255.799 213.416C255.799 214.141 255.927 214.739 256.183 215.208C256.482 215.677 256.951 215.912 257.591 215.912Z" fill="black"/>
</g>
<path d="M-1 222.02C-1 222.02 12.3587 228.208 21.5348 228.855C29.7546 229.433 41.4777 229.242 50.6205 227.303M50.6205 227.303C60.7943 225.145 67.7731 220.823 63.1751 212.989C55.5819 200.052 38.4358 204.446 34.0269 214.697C30.8713 222.035 39.7622 225.583 50.6205 227.303ZM50.6205 227.303C57.2912 228.359 64.7045 228.725 70.5234 228.855C84.4851 229.166 95.0177 223.973 95.0177 223.973" stroke="#EF4444" stroke-width="2" stroke-linecap="round"/>
<path d="M101.4 264.856C101.4 264.856 85.1072 267.459 76.1819 272.606C59.29 282.346 30.0407 305.085 47.4964 313.473C62.6787 320.769 75.8353 305.934 73.4839 293.621C70.7671 279.394 45.1106 294.034 30.7001 303.295C17.5421 311.751 11.0282 323.188 11.0282 323.188" stroke="#EF4444" stroke-width="6" stroke-linecap="round"/>
<path d="M76.612 361.651C76.3792 362.152 76.5964 362.747 77.0973 362.979L85.2585 366.773C85.7593 367.006 86.354 366.789 86.5868 366.288C86.8197 365.787 86.6024 365.193 86.1016 364.96L78.8472 361.587L82.2196 354.333C82.4524 353.832 82.2351 353.237 81.7343 353.005C81.2335 352.772 80.6388 352.989 80.406 353.49L76.612 361.651ZM107.806 321.825L107.552 322.792L107.806 321.825ZM93.6718 353.458L94.3273 354.213L93.6718 353.458ZM120.593 326.536L121.284 327.259L120.593 326.536ZM92.7295 338.786L93.658 338.414L92.7295 338.786ZM77.5188 362.073C77.8619 363.012 77.862 363.012 77.862 363.012C77.862 363.012 77.862 363.012 77.8621 363.012C77.8621 363.012 77.8622 363.012 77.8623 363.012C77.8625 363.012 77.8627 363.012 77.863 363.012C77.8635 363.011 77.8643 363.011 77.8653 363.011C77.8672 363.01 77.8699 363.009 77.8734 363.008C77.8804 363.005 77.8905 363.001 77.9037 362.997C77.9302 362.987 77.9689 362.972 78.0192 362.954C78.1199 362.916 78.267 362.86 78.4552 362.788C78.8315 362.643 79.3724 362.431 80.0348 362.16L79.277 360.309C78.6291 360.574 78.1015 360.781 77.7369 360.921C77.5546 360.991 77.4131 361.045 77.3177 361.081C77.2701 361.098 77.234 361.112 77.2101 361.121C77.1981 361.125 77.1892 361.128 77.1834 361.131C77.1806 361.132 77.1785 361.132 77.1772 361.133C77.1765 361.133 77.1761 361.133 77.1758 361.133C77.1757 361.133 77.1756 361.133 77.1756 361.133C77.1756 361.133 77.1756 361.133 77.1756 361.133C77.1756 361.133 77.1756 361.133 77.1756 361.133C77.1757 361.133 77.1757 361.133 77.5188 362.073ZM84.2895 360.29C85.6168 359.665 87.0413 358.952 88.4451 358.172L87.4744 356.424C86.1179 357.177 84.7344 357.87 83.4374 358.481L84.2895 360.29ZM92.4412 355.685C93.1102 355.21 93.7455 354.718 94.3273 354.213L93.0162 352.703C92.4921 353.158 91.9092 353.61 91.2824 354.055L92.4412 355.685ZM94.3273 354.213C94.8249 353.781 95.3377 353.325 95.8616 352.848L94.5148 351.369C94.0022 351.836 93.5013 352.282 93.0162 352.703L94.3273 354.213ZM98.8471 350.011C99.7988 349.07 100.762 348.08 101.717 347.058L100.255 345.693C99.3192 346.695 98.3742 347.666 97.4406 348.589L98.8471 350.011ZM104.463 343.99C105.365 342.935 106.239 341.862 107.066 340.785L105.479 339.567C104.676 340.614 103.825 341.659 102.943 342.689L104.463 343.99ZM109.475 337.413C110.277 336.194 110.994 334.983 111.593 333.801L109.809 332.897C109.251 333.998 108.574 335.144 107.805 336.313L109.475 337.413ZM113.16 329.81C113.572 328.215 113.67 326.657 113.259 325.256L111.34 325.819C111.615 326.757 111.582 327.923 111.224 329.31L113.16 329.81ZM110.182 321.658C109.557 321.331 108.85 321.065 108.059 320.858L107.552 322.792C108.22 322.967 108.783 323.183 109.254 323.43L110.182 321.658ZM108.059 320.858C107.223 320.639 106.405 320.495 105.607 320.42L105.422 322.412C106.107 322.476 106.818 322.6 107.552 322.792L108.059 320.858ZM100.622 320.901C98.9631 321.403 97.4811 322.231 96.2074 323.284L97.4814 324.826C98.5641 323.931 99.8127 323.236 101.202 322.815L100.622 320.901ZM92.9949 327.088C92.1522 328.529 91.5516 330.107 91.2249 331.724L93.1853 332.12C93.4682 330.719 93.9897 329.349 94.7213 328.098L92.9949 327.088ZM91.1191 336.715C91.26 337.549 91.4853 338.368 91.801 339.157L93.658 338.414C93.3976 337.763 93.2095 337.082 93.0912 336.382L91.1191 336.715ZM91.801 339.157C92.1396 340.003 92.5784 340.719 93.121 341.296L94.5781 339.926C94.2343 339.561 93.9198 339.069 93.658 338.414L91.801 339.157ZM97.8397 342.943C99.2415 342.837 100.749 342.375 102.286 341.696L101.477 339.867C100.057 340.494 98.7815 340.866 97.6878 340.949L97.8397 342.943ZM106.184 339.595C107.378 338.851 108.589 338.018 109.795 337.129L108.608 335.519C107.436 336.383 106.268 337.186 105.127 337.897L106.184 339.595ZM113.222 334.457C114.35 333.533 115.455 332.587 116.52 331.648L115.196 330.148C114.147 331.074 113.06 332.004 111.955 332.91L113.222 334.457ZM119.718 328.74C120.261 328.232 120.785 327.737 121.284 327.259L119.902 325.813C119.407 326.287 118.89 326.777 118.353 327.278L119.718 328.74ZM121.284 327.259C121.901 326.67 122.487 326.074 123.044 325.476L121.581 324.112C121.049 324.683 120.49 325.252 119.902 325.813L121.284 327.259ZM126.245 321.636C127.329 320.184 128.249 318.777 129.019 317.483L127.3 316.46C126.562 317.7 125.68 319.049 124.642 320.44L126.245 321.636ZM131.343 313.058C131.671 312.338 131.91 311.756 132.069 311.351C132.148 311.148 132.207 310.99 132.247 310.88C132.267 310.826 132.282 310.783 132.292 310.753C132.297 310.739 132.301 310.727 132.304 310.719C132.306 310.714 132.307 310.711 132.308 310.709C132.308 310.707 132.308 310.706 132.309 310.705C132.309 310.705 132.309 310.705 132.309 310.704C132.309 310.704 132.309 310.704 132.309 310.704C132.309 310.704 132.309 310.704 132.309 310.704C132.309 310.704 132.309 310.703 131.362 310.383C130.415 310.063 130.415 310.063 130.415 310.063C130.415 310.063 130.415 310.063 130.415 310.063C130.415 310.063 130.415 310.063 130.415 310.063C130.415 310.062 130.415 310.062 130.415 310.062C130.415 310.062 130.415 310.063 130.415 310.063C130.414 310.064 130.414 310.065 130.413 310.068C130.411 310.073 130.408 310.081 130.404 310.092C130.397 310.115 130.384 310.15 130.367 310.197C130.332 310.292 130.279 310.436 130.206 310.622C130.06 310.996 129.835 311.545 129.523 312.23L131.343 313.058Z" fill="#EF4444"/>
<path d="M303.755 197.193L304.609 194.398L304.975 194.509L304.986 194.544L305.037 194.528L305.087 194.544L305.098 194.509L305.464 194.398L306.318 197.193L305.84 197.339L306.694 200.134L307.172 199.988L308.027 202.783L307.548 202.929L308.403 205.724L308.881 205.578L309.735 208.373L309.257 208.519L310.111 211.314L310.59 211.168L311.444 213.963L310.966 214.109L311.82 216.904L312.298 216.758L313.153 219.553L312.674 219.699L313.529 222.494L314.007 222.348L314.861 225.143L314.383 225.29L315.237 228.085L315.716 227.938L316.57 230.733L316.092 230.88L316.519 232.277L316.553 232.388L316.631 232.472L317.628 233.541L317.994 233.2L319.987 235.337L319.622 235.678L321.615 237.816L321.981 237.475L323.974 239.612L323.609 239.953L325.602 242.09L325.968 241.749L327.961 243.887L327.595 244.228L329.589 246.365L329.954 246.024L331.948 248.162L331.582 248.503L333.576 250.64L333.941 250.299L335.935 252.436L335.569 252.777L337.563 254.915L337.928 254.574L339.922 256.711L339.556 257.052L341.549 259.19L341.915 258.849L343.909 260.986L343.629 261.247L343.594 261.239L343.582 261.291L343.543 261.327L343.567 261.353L343.481 261.726L340.634 261.068L340.746 260.581L337.898 259.923L337.786 260.411L334.938 259.753L335.051 259.266L332.203 258.608L332.09 259.095L329.243 258.438L329.355 257.95L326.507 257.293L326.395 257.78L323.547 257.122L323.66 256.635L320.812 255.977L320.699 256.465L317.851 255.807L317.964 255.32L315.116 254.662L315.004 255.149L312.156 254.492L312.268 254.004L309.421 253.347L309.308 253.834L306.46 253.176L306.573 252.689L305.149 252.36L305.036 252.334L304.924 252.36L303.5 252.689L303.613 253.176L300.765 253.834L300.652 253.347L297.805 254.004L297.917 254.492L295.069 255.149L294.957 254.662L292.109 255.32L292.222 255.807L289.374 256.465L289.261 255.977L286.413 256.635L286.526 257.122L283.678 257.78L283.566 257.293L280.718 257.95L280.83 258.438L277.983 259.095L277.87 258.608L275.022 259.266L275.135 259.753L272.287 260.411L272.175 259.923L269.327 260.581L269.439 261.068L266.592 261.726L266.506 261.353L266.53 261.327L266.491 261.291L266.479 261.239L266.444 261.247L266.164 260.986L268.158 258.849L268.524 259.19L270.517 257.052L270.151 256.711L272.145 254.574L272.51 254.915L274.504 252.777L274.138 252.436L276.132 250.299L276.497 250.64L278.491 248.503L278.125 248.162L280.119 246.024L280.484 246.365L282.478 244.228L282.112 243.887L284.105 241.749L284.471 242.09L286.464 239.953L286.099 239.612L288.092 237.475L288.458 237.816L290.451 235.678L290.086 235.337L292.079 233.2L292.445 233.541L293.442 232.472L293.52 232.388L293.554 232.277L293.981 230.88L293.503 230.733L294.357 227.938L294.836 228.085L295.69 225.29L295.212 225.143L296.066 222.348L296.544 222.494L297.399 219.699L296.92 219.553L297.775 216.758L298.253 216.904L299.107 214.109L298.629 213.963L299.483 211.168L299.962 211.314L300.816 208.519L300.338 208.373L301.192 205.578L301.67 205.724L302.524 202.929L302.046 202.783L302.901 199.988L303.379 200.134L304.233 197.339L303.755 197.193Z" stroke="#FACC15" stroke-dasharray="3 3"/>
<path d="M351.679 381.6L335.929 366.911L315.334 360.616L335.929 354.321L351.679 339.633L346.833 360.616L351.679 381.6Z" fill="#FACC15"/>
<path fill-rule="evenodd" clip-rule="evenodd" d="M349.922 360.616L356.828 330.715L334.385 351.646L305.036 360.616L334.385 369.587L356.828 390.518L349.922 360.616ZM347.62 360.616L352.991 383.873L335.536 367.593L312.709 360.616L335.536 353.639L352.991 337.36L347.62 360.616Z" fill="#FACC15"/>
<path d="M421.992 262.226L439.65 278.694L439.988 279.009L440.429 279.144L463.52 286.202L440.429 293.26L439.988 293.395L439.65 293.71L421.992 310.178L427.425 286.652L427.529 286.202L427.425 285.752L421.992 262.226Z" stroke="#FACC15" stroke-width="4"/>
<circle cx="33.5559" cy="85.9848" r="33.5559" stroke="#22C55E" stroke-width="2" stroke-dasharray="4 4"/>
<circle cx="81.4404" cy="16.8731" r="7.87311" stroke="#22C55E" stroke-width="4" stroke-dasharray="8 8"/>
<circle cx="113.528" cy="85.9848" r="6.90483" transform="rotate(-45 113.528 85.9848)" stroke="#22C55E" stroke-dasharray="8 8"/>
<path d="M325.015 66.412C326.2 66.174 326.966 65.0172 326.727 63.8275L326.727 63.8263L326.724 63.8149C326.722 63.7996 326.717 63.7725 326.71 63.7342C326.696 63.6576 326.676 63.5366 326.653 63.3767C326.607 63.0562 326.55 62.5825 326.509 61.9976C326.427 60.8195 326.417 59.2342 326.686 57.5625C327.225 54.2218 328.8 50.843 332.889 49.2682C337.146 47.6289 341.417 48.9057 346.589 50.5504L346.864 50.6381C349.569 51.4991 352.542 52.4454 355.655 52.7179C358.099 52.9318 360.628 52.7306 363.182 51.747C365.725 50.7677 367.73 49.2295 369.395 47.442C371.532 45.1468 373.108 42.4408 374.542 39.9795L374.687 39.7295C377.42 35.0405 379.731 31.229 383.988 29.5898C388.245 27.9505 392.515 29.2273 397.687 30.872L397.963 30.9597C400.703 31.8318 403.718 32.7915 406.875 33.0497C409.281 33.2466 411.769 33.0359 414.281 32.0686C416.782 31.1055 418.762 29.6018 420.41 27.8521C422.59 25.5382 424.188 22.7941 425.64 20.301L425.786 20.051C428.519 15.3621 430.83 11.5506 435.087 9.91134C439.208 8.32433 442.859 9.73255 445.713 11.8156C447.133 12.8522 448.284 14.0109 449.083 14.9189C449.479 15.37 449.783 15.7519 449.983 16.0151C450.083 16.1465 450.157 16.2477 450.204 16.3125C450.227 16.3449 450.243 16.3681 450.252 16.3814L450.259 16.3905L450.26 16.3925L450.261 16.3933L450.261 16.394C450.943 17.3968 452.304 17.6591 453.304 16.9794C454.304 16.299 454.563 14.932 453.882 13.9262L452.07 15.1584C453.882 13.9262 453.881 13.9255 453.88 13.9247L453.879 13.9229L453.876 13.9186L453.868 13.9068L453.844 13.8712C453.824 13.8423 453.796 13.803 453.761 13.7542C453.691 13.6565 453.592 13.5206 453.464 13.3528C453.209 13.0178 452.839 12.5539 452.365 12.0145C451.421 10.9414 450.036 9.54039 448.285 8.26221C444.795 5.71559 439.56 3.47379 433.506 5.80533C427.698 8.04191 424.697 13.1946 422.146 17.5729L422.001 17.8229C419.268 22.5118 416.956 26.3233 412.7 27.9626C408.443 29.6018 404.172 28.3251 399 26.6804L398.725 26.5926C393.897 25.0558 388.214 23.2472 382.407 25.4837C376.599 27.7203 373.598 32.873 371.048 37.2513L370.902 37.5013C368.169 42.1902 365.858 46.0017 361.601 47.641C357.344 49.2802 353.074 48.0035 347.902 46.3588L347.626 46.271C342.798 44.7342 337.116 42.9256 331.308 45.1622C325.222 47.5058 323.037 52.6475 322.359 56.8476C322.021 58.9462 322.039 60.8864 322.137 62.2912C322.186 62.9978 322.256 63.5798 322.315 63.9923C322.345 64.1989 322.372 64.3637 322.393 64.4812C322.403 64.54 322.412 64.587 322.418 64.6215L322.426 64.664L322.429 64.6781L322.43 64.6833L322.431 64.6855C322.431 64.6864 322.431 64.6873 324.579 64.256L322.431 64.6873C322.672 65.8781 323.829 66.6502 325.015 66.412Z" fill="#3B82F6"/>
<path d="M333.447 81.278C333.686 82.4678 332.92 83.6245 331.735 83.8626C330.549 84.1008 329.392 83.3286 329.151 82.1379L331.299 81.7066C329.151 82.1379 329.151 82.137 329.151 82.136L329.15 82.1339L329.149 82.1286L329.147 82.1145L329.138 82.0721C329.132 82.0375 329.123 81.9905 329.113 81.9317C329.092 81.8142 329.065 81.6494 329.036 81.4429C328.976 81.0304 328.906 80.4483 328.857 79.7418C328.759 78.337 328.741 76.3968 329.08 74.2981C329.757 70.0981 331.942 64.9564 338.028 62.6127C343.836 60.3761 349.518 62.1848 354.346 63.7216L354.622 63.8093C359.794 65.454 364.065 66.7308 368.321 65.0915C372.578 63.4523 374.889 59.6408 377.622 54.9518L377.768 54.7018C380.318 50.3235 383.319 45.1709 389.127 42.9343C394.935 40.6977 400.617 42.5063 405.445 44.0432L405.721 44.1309C410.893 45.7756 415.164 47.0524 419.42 45.4131C423.677 43.7739 425.988 39.9623 428.721 35.2734L428.867 35.0234C431.417 30.6451 434.418 25.4925 440.226 23.2559C446.28 20.9243 451.516 23.1661 455.005 25.7127C456.756 26.9909 458.141 28.392 459.085 29.465C459.56 30.0044 459.929 30.4684 460.184 30.8034C460.312 30.9711 460.411 31.1071 460.481 31.2047C460.516 31.2535 460.544 31.2928 460.564 31.3218L460.589 31.3573L460.597 31.3691L460.6 31.3735L460.601 31.3753C460.601 31.376 460.602 31.3768 458.79 32.6089L460.602 31.3768C461.283 32.3825 461.024 33.7495 460.024 34.43C459.025 35.1097 457.663 34.8474 456.981 33.8445L456.981 33.8438L456.98 33.843L456.979 33.841L456.973 33.8319C456.963 33.8186 456.947 33.7954 456.924 33.763C456.877 33.6983 456.804 33.597 456.704 33.4656C456.503 33.2025 456.2 32.8206 455.803 32.3694C455.004 31.4615 453.854 30.3028 452.433 29.2661C449.579 27.1831 445.928 25.7749 441.807 27.3619C437.55 29.0011 435.239 32.8126 432.506 37.5016L432.361 37.7516C430.909 40.2446 429.31 42.9888 427.131 45.3026C425.483 47.0524 423.502 48.5561 421.001 49.5191C418.489 50.4865 416.001 50.6971 413.595 50.5003C410.438 50.242 407.423 49.2824 404.683 48.4102L404.408 48.3225C399.236 46.6778 394.965 45.401 390.708 47.0403C386.452 48.6795 384.14 52.4911 381.408 57.18L381.262 57.43C379.828 59.8913 378.252 62.5974 376.115 64.8925C374.45 66.68 372.445 68.2183 369.903 69.1975C367.349 70.1811 364.819 70.3824 362.375 70.1684C359.262 69.8959 356.29 68.9496 353.585 68.0886L353.309 68.0009C348.137 66.3562 343.866 65.0795 339.61 66.7187C335.52 68.2936 333.945 71.6723 333.407 75.0131C333.137 76.6848 333.147 78.2701 333.229 79.4482C333.27 80.033 333.328 80.5068 333.374 80.8272C333.397 80.9872 333.417 81.1081 333.43 81.1847C333.437 81.223 333.442 81.2502 333.445 81.2655L333.447 81.2768L333.447 81.278Z" fill="#3B82F6"/>
<path d="M340.167 98.7273L340.167 98.7279C340.407 99.9179 339.641 101.075 338.456 101.313C337.269 101.551 336.113 100.779 335.872 99.5884L338.019 99.1571C335.872 99.5884 335.871 99.5875 335.871 99.5866L335.871 99.5844L335.87 99.5792L335.867 99.5651L335.859 99.5226C335.852 99.4881 335.844 99.441 335.833 99.3823C335.813 99.2647 335.786 99.0999 335.756 98.8934C335.697 98.4809 335.626 97.8989 335.577 97.1923C335.479 95.7875 335.462 93.8473 335.8 91.7486C336.477 87.5486 338.663 82.4069 344.749 80.0632C350.556 77.8267 356.238 79.6353 361.067 81.1721L361.342 81.2599C366.514 82.9045 370.785 84.1813 375.042 82.5421C379.298 80.9028 381.61 77.0913 384.342 72.4024L384.488 72.1523C387.038 67.774 390.04 62.6214 395.847 60.3848C401.655 58.1482 407.337 59.9569 412.165 61.4937L412.441 61.5814C417.613 63.2261 421.884 64.5029 426.14 62.8636C430.397 61.2244 432.708 57.4129 435.441 52.7239L435.587 52.4739C438.137 48.0956 441.138 42.943 446.946 40.7064C453 38.3749 458.236 40.6167 461.725 43.1633C463.476 44.4415 464.862 45.8425 465.806 46.9156C466.28 47.4549 466.65 47.9189 466.905 48.2539C467.032 48.4216 467.132 48.5576 467.202 48.6552C467.236 48.7041 467.264 48.7434 467.284 48.7723L467.309 48.8079L467.317 48.8197L467.32 48.824L467.321 48.8258C467.322 48.8266 467.322 48.8273 465.511 50.0595L467.322 48.8273C468.003 49.8331 467.745 51.2 466.744 51.8805C465.745 52.5602 464.384 52.2979 463.702 51.295L463.701 51.2944L463.701 51.2936L463.699 51.2916L463.693 51.2825C463.689 51.2765 463.683 51.2684 463.676 51.2584C463.667 51.2463 463.657 51.2313 463.644 51.2136C463.598 51.1488 463.524 51.0476 463.424 50.9162C463.224 50.653 462.92 50.2711 462.523 49.82C461.724 48.912 460.574 47.7533 459.154 46.7167C456.3 44.6336 452.648 43.2254 448.527 44.8124C444.271 46.4517 441.96 50.2632 439.227 54.9521L439.081 55.2021C437.629 57.6952 436.03 60.4393 433.851 62.7532C432.203 64.5029 430.222 66.0066 427.722 66.9697C425.21 67.937 422.721 68.1476 420.315 67.9508C417.159 67.6925 414.144 66.7329 411.404 65.8608L411.128 65.773C405.956 64.1284 401.685 62.8516 397.429 64.4908C393.172 66.1301 390.861 69.9416 388.128 74.6305L387.982 74.8806C386.548 77.3419 384.972 80.0479 382.835 82.343C381.171 84.1306 379.166 85.6688 376.623 86.6481C374.069 87.6317 371.539 87.8329 369.096 87.619C365.983 87.3464 363.01 86.4002 360.305 85.5392L360.029 85.4514C354.857 83.8068 350.586 82.53 346.33 84.1692C342.24 85.7441 340.666 89.1229 340.127 92.4636C339.857 94.1353 339.867 95.7206 339.95 96.8987C339.99 97.4836 340.048 97.9573 340.094 98.2777C340.117 98.4377 340.137 98.5586 340.15 98.6353C340.157 98.6736 340.162 98.7007 340.165 98.716L340.167 98.7273Z" fill="#3B82F6"/>
<defs>
<filter id="filter0_d" x="146" y="134" width="137" height="96.12" filterUnits="userSpaceOnUse" color-interpolation-filters="sRGB">
<feFlood flood-opacity="0" result="BackgroundImageFix"/>
<feColorMatrix in="SourceAlpha" type="matrix" values="0 0 0 0 0 0 0 0 0 0 0 0 0 0 0 0 0 0 127 0" result="hardAlpha"/>
<feOffset dy="4"/>
<feGaussianBlur stdDeviation="2"/>
<feComposite in2="hardAlpha" operator="out"/>
<feColorMatrix type="matrix" values="0 0 0 0 0 0 0 0 0 0 0 0 0 0 0 0 0 0 0.12 0"/>
<feBlend mode="normal" in2="BackgroundImageFix" result="effect1_dropShadow"/>
<feBlend mode="normal" in="SourceGraphic" in2="effect1_dropShadow" result="shape"/>
</filter>
</defs>
</svg>
